<?xml version="1.0" encoding="utf-8"?>
<!-- Generator: Adobe Illustrator 19.0.0, SVG Export Plug-In . SVG Version: 6.00 Build 0)  -->
<svg version="1.0" id="Layer_1" xmlns="http://www.w3.org/2000/svg" xmlns:xlink="http://www.w3.org/1999/xlink" x="0px" y="0px"
	 viewBox="0 0 188.314 167.333" style="enable-background:new 0 0 188.314 167.333;" xml:space="preserve">
<g id="XMLID_157_">
	<g id="XMLID_169_">
		<path id="XMLID_173_" d="M83.284,81.783c-7.339,9.478-8.457,20.972-2.5,31.593c5.538,9.876,16.393,15.878,27.695,14.71
			c12.261-1.268,23.036-9.512,28.122-20.678c5.648-12.401,3.857-26.215-2.082-38.159c-5.374-10.807-15.242-21.616-27.414-24.353
			c-12.364-2.78-25.558,3.795-36.266,9.392c-9.856,5.151-19.292,12.558-24.633,22.517c-5.956,11.106-6.954,24.109-3.938,36.249
			c5.938,23.903,27.367,39.706,49.852,46.788c13.492,4.25,27.302,4.919,40.373-0.98c10.698-4.827,21.637-13.203,29.726-21.658
			c17.082-17.857,17.87-42.624,13.893-65.66c-4.185-24.245-13.028-47.937-36.35-59.577c-26.795-13.373-58.174-8.131-84.416,4.018
			c-24.738,11.453-46.1,35.517-43.8,64.332c0.516,6.461,5.146,12,12,12c6.093,0,12.519-5.504,12-12
			c-2.865-35.883,43.801-53.674,73.228-52.27c14.879,0.71,29.175,7.742,36.141,21.172c3.942,7.601,5.685,16.504,7.335,24.845
			c1.469,7.427,2.31,14.85,1.987,22.542c-0.287,6.82-1.864,13.834-5.808,19.727c-4.353,6.503-11.476,11.468-17.828,15.884
			c-6.79,4.721-13.263,7.94-21.737,7.001c-8.011-0.888-16.264-4.146-23.227-8.117c-12.533-7.148-22.366-19.51-20.985-34.319
			c1.309-14.044,15.885-21.423,28.036-26.226c2.746-1.085,6.85-3.099,9.498-2.269c3.381,1.059,6.302,4.673,8.271,7.42
			c4.215,5.88,7.397,14.675,4.831,20.895c-1.385,3.359-3.392,5.408-6.33,6.894c1.163-0.588-3.313,0.943-1.852,0.752
			c-0.948,0.123-1.844-0.004-2.784,0.003c1.45-0.011-1.283-1.039,0.254,0.009c-0.47-0.32-1.072-0.5-1.494-0.891
			c-0.823-0.763,0.528,0.805-0.685-0.752c-0.342-0.439-1.165-1.761-1.269-2.031c0.478,1.229-0.247-1.023-0.309-1.304
			c-0.187-0.87-0.189-0.741-0.005,0.385c-0.01-0.374-0.02-0.748-0.03-1.122c0.842-2.585-0.438-0.464-0.008-0.109
			c-0.434-0.359,0.989-1.629-0.52,0.319c3.964-5.119,4.99-11.981,0-16.971C96.121,77.65,87.275,76.629,83.284,81.783L83.284,81.783z
			"/>
	</g>
</g>
</svg>
