<?xml version="1.0" encoding="utf-8"?>
<!-- Generator: Adobe Illustrator 19.0.0, SVG Export Plug-In . SVG Version: 6.00 Build 0)  -->
<svg version="1.0" id="Layer_1" xmlns="http://www.w3.org/2000/svg" xmlns:xlink="http://www.w3.org/1999/xlink" x="0px" y="0px"
	 viewBox="0 0 188.314 167.333" style="enable-background:new 0 0 188.314 167.333;" xml:space="preserve">
<g id="XMLID_158_">
	<path id="XMLID_170_" d="M89.369,85.01c0,0-4.44-50.259-48.369-44.51C41,40.5,42.062,90.284,89.369,85.01z"/>
	<path id="XMLID_169_" d="M87.127,88.63c0,0-27.289-39.051-62.46-12.109C24.668,76.521,48.795,116.85,87.127,88.63z"/>
	<path id="XMLID_168_" d="M86.998,92.884c0,0-44.239-17.738-61.227,23.18C25.771,116.063,67.911,136.49,86.998,92.884z"/>
	<path id="XMLID_167_" d="M89.011,96.633c0,0-43.257,2.688-37.511,46.617C51.5,143.25,94.285,143.941,89.011,96.633z"/>
	<path id="XMLID_166_" d="M92.629,98.873c0,0-35.57,25.959-8.629,61.127C84,160,120.851,137.206,92.629,98.873z"/>
	<path id="XMLID_165_" d="M96.885,99.005c0,0-20.148,36.259,20.77,53.245C117.655,152.25,140.49,118.092,96.885,99.005z"/>
	<path id="XMLID_164_" d="M100.633,96.991c0,0,4.938,45.508,48.867,39.759C149.5,136.75,147.941,91.718,100.633,96.991z"/>
	<path id="XMLID_163_" d="M102.875,93.372c0,0,27.207,40.821,62.375,13.878C165.25,107.25,141.207,65.152,102.875,93.372z"/>
	<path id="XMLID_162_" d="M103.005,89.118c0,0,43.759,24.299,60.745-16.618C163.75,72.5,122.092,45.512,103.005,89.118z"/>
	<path id="XMLID_161_" d="M100.992,85.367c0,0,54.256-8.438,48.508-52.367C149.5,33,95.719,38.062,100.992,85.367z"/>
	<path id="XMLID_160_" d="M97.373,83.128c0,0,39.07-34.707,12.127-69.878C109.5,13.25,69.152,44.795,97.373,83.128z"/>
	<path id="XMLID_159_" d="M93.119,82.997c0,0,12.959-49.009-27.958-65.997C65.16,17,49.513,63.91,93.119,82.997z"/>
</g>
<ellipse id="XMLID_157_" cx="98.113" cy="92.723" rx="20.863" ry="16.473"/>
</svg>
