<?xml version="1.0" encoding="utf-8"?>
<!-- Generator: Adobe Illustrator 19.0.0, SVG Export Plug-In . SVG Version: 6.00 Build 0)  -->
<svg version="1.0" id="Layer_1" xmlns="http://www.w3.org/2000/svg" xmlns:xlink="http://www.w3.org/1999/xlink" x="0px" y="0px"
	 viewBox="0 0 188.314 167.333" style="enable-background:new 0 0 188.314 167.333;" xml:space="preserve">
<path id="XMLID_157_" d="M95,141.754c-7.285-5.47-14.054-8.021-21.272-8.021c-5.259,0-10.161,1.308-15.351,2.693
	c-5.616,1.499-11.423,3.049-18.173,3.049c-9.416,0-17.077-7.661-17.077-17.076c0-4.68,1.117-8.282,2.197-11.765l0.212-0.685
	l-0.362-0.237C17.479,104.67,12.885,96.18,12.885,87c0-9.179,4.594-17.67,12.29-22.712l0.362-0.237l-0.212-0.685
	c-1.08-3.483-2.197-7.085-2.197-11.765c0-9.416,7.661-17.076,17.077-17.076c6.75,0,12.557,1.55,18.172,3.049
	c5.19,1.385,10.092,2.693,15.352,2.693c7.218-0.001,13.987-2.551,21.272-8.021c7.286,5.47,14.055,8.021,21.272,8.021
	c5.259-0.001,10.161-1.308,15.35-2.693c5.616-1.499,11.424-3.049,18.174-3.049c9.416,0,17.077,7.661,17.077,17.076
	c0,4.68-1.117,8.282-2.197,11.765l-0.212,0.685l0.362,0.237c7.695,5.042,12.29,13.533,12.29,22.712c0,9.18-4.594,17.67-12.29,22.713
	l-0.362,0.237l0.212,0.685c1.08,3.483,2.197,7.085,2.197,11.765c0,9.416-7.66,17.076-17.077,17.076
	c-6.75,0-12.557-1.55-18.173-3.049c-5.19-1.385-10.091-2.693-15.351-2.693C109.054,133.734,102.285,136.285,95,141.754z"/>
</svg>
