<?xml version="1.0" encoding="utf-8"?>
<!-- Generator: Adobe Illustrator 19.0.0, SVG Export Plug-In . SVG Version: 6.00 Build 0)  -->
<svg version="1.0" id="Layer_1" xmlns="http://www.w3.org/2000/svg" xmlns:xlink="http://www.w3.org/1999/xlink" x="0px" y="0px"
	 viewBox="0 0 188.314 167.333" style="enable-background:new 0 0 188.314 167.333;" xml:space="preserve">
<g id="XMLID_246_">
	<g id="XMLID_247_">
		<path id="XMLID_248_" d="M99.521,18.519L99.521,18.519c7.111-4.008,16.102-1.98,20.802,4.694v0
			c2.944,4.18,7.72,6.689,12.833,6.742l0,0c8.162,0.084,14.934,6.336,15.668,14.466l0,0c0.46,5.092,3.341,9.653,7.743,12.255l0,0
			c7.027,4.154,9.765,12.955,6.336,20.362l0,0c-2.148,4.64-1.933,10.03,0.578,14.484l0,0c4.008,7.111,1.98,16.102-4.694,20.802l0,0
			c-4.18,2.944-6.689,7.72-6.742,12.833l0,0c-0.084,8.162-6.336,14.934-14.466,15.668l0,0c-5.092,0.46-9.653,3.341-12.255,7.743l0,0
			c-4.154,7.027-12.954,9.765-20.362,6.336l0,0c-4.64-2.148-10.03-1.933-14.484,0.578h0c-7.111,4.008-16.102,1.98-20.802-4.694l0,0
			c-2.944-4.18-7.72-6.689-12.833-6.742l0,0c-8.162-0.084-14.934-6.336-15.668-14.466l0,0c-0.46-5.092-3.341-9.653-7.743-12.255l0,0
			c-7.027-4.154-9.765-12.955-6.336-20.362l0,0c2.148-4.64,1.933-10.03-0.578-14.484l0,0c-4.008-7.111-1.98-16.102,4.694-20.802l0,0
			c4.18-2.944,6.689-7.72,6.742-12.833l0,0c0.084-8.162,6.336-14.934,14.466-15.668l0,0c5.092-0.46,9.653-3.341,12.255-7.743l0,0
			c4.154-7.027,12.955-9.765,20.362-6.336l0,0C89.677,21.245,95.067,21.03,99.521,18.519z"/>
	</g>
</g>
</svg>
