<?xml version="1.0" encoding="utf-8"?>
<!-- Generator: Adobe Illustrator 19.0.0, SVG Export Plug-In . SVG Version: 6.00 Build 0)  -->
<svg version="1.0" id="Layer_1" xmlns="http://www.w3.org/2000/svg" xmlns:xlink="http://www.w3.org/1999/xlink" x="0px" y="0px"
	 viewBox="0 0 188.314 167.333" style="enable-background:new 0 0 188.314 167.333;" xml:space="preserve">
<path id="XMLID_540_" style="stroke:#FFFFFF;stroke-miterlimit:10;" d="M175.419,128.384c-8.193-4.844-17.976-0.849-25.784,2.735
	c-3.14,1.435-6.428,3.315-9.87,3.935c-2.877,0.512-5.862-0.707-5.949-3.867c-0.054-2.203,1.455-4.09,2.863-5.639
	c3.591-3.962,8.294-6.677,12.269-10.221c3.005-2.675,6.212-6.212,5.808-10.544c-0.155-1.664-0.822-3.227-2.075-4.359
	c-1.482-1.341-4.123-1.711-5.215-3.503c0.175-0.168,0.256-0.425,0.155-0.728c-1.442-4.292,0.209-8.496,3.409-11.521
	c2.56-2.419,5.821-3.685,8.61-5.761c3.322-2.466,5.053-6.306,2.668-10.113c-3.301-5.248-10.207-5.026-15.645-5.195
	c-3.402-0.101-7.418,0.296-10.699-0.734c-3.018-0.95-4.716-3.382-3.564-6.535c0.701-1.907,3.14-3.638,4.723-4.723
	c9.574-6.535,24.329-6.273,30.783-17.187c7.121-12.047-8.044-19.134-17.935-19.39c-13.158-0.344-24.1,7.452-31.936,17.383
	c-2.028,2.574-3.982,5.37-6.421,7.586c-1.617,1.469-3.706,2.884-6.017,2.688c-3.881-0.33-4.467-4.137-3.611-7.209
	c1.381-4.932,4.5-9.527,0.182-13.96c-3.247-3.349-8.354-4.096-12.545-2.203c-4.649,2.102-7.209,6.488-7.634,11.447
	c-0.344,4.063,0.492,8.819-2.722,11.986c-2.264,2.237-5.511,2.122-7.047-0.91c-1.213-2.399-0.606-5.168-0.074-7.654
	c1.199-5.626,2.385-11.629-1.476-16.534C63.362,8.356,45.09,7.116,39.7,19.055c-2.52,5.585-0.694,12.175,2.675,16.985
	c1.968,2.809,4.521,5.168,7.196,7.297c1.24,0.99,2.527,1.934,3.813,2.863c1.415,1.017,6.414,3.854,6.488,6.448
	c-0.135,0.121-0.209,0.31-0.182,0.566c0.101,0.876-2.439,1.556-2.958,1.57c-0.93,0.013-1.792-0.438-2.607-0.802
	c-1.071-0.478-2.082-1.064-3.126-1.59c-1.677-0.849-3.436-1.637-5.35-1.664c-2.816-0.047-5.794,1.334-7.169,3.861
	c-4.534,8.314,7.896,12.579,12.572,16.002c2.756,2.008,5.37,5.821,3.322,9.15c-1.705,2.762-5.451,2.87-8.24,1.812
	c-4.541-1.711-7.553-6.077-11.629-8.59c-6.744-4.17-16.345-5.451-23.231-0.896c-6.583,4.346-6.576,12.997-1.146,18.36
	c6.3,6.212,16.952,7.148,25.124,5.006c5.249-1.381,11.892-6.192,15.658,0.438c1.657,2.917,0.937,6.374-1.031,8.914
	c-2.432,3.14-6.124,4.096-9.897,4.534c-6.01,0.701-18.184,1.994-16.278,11.184c0.815,3.921,5.154,6.939,8.624,8.321
	c5.531,2.203,14.075-1.327,16.352,6.198c1.509,4.999-3.423,9.305-2.708,14.371c0.62,4.393,4.514,7.256,8.125,9.251
	c0.296,0.162,0.572,0.034,0.721-0.175c7.128,2.001,13.947-3.025,19.424-7.492c4.48-3.652,9.904-8.031,16.096-7.263
	c2.702,0.337,5.491,1.705,6.96,4.096c1.57,2.547,0.613,5.478,1.374,8.206c2.041,7.31,11.999,9.493,17.935,5.895
	c2.998-1.819,5.147-4.844,5.936-8.253c0.667-2.87,0.573-5.855,3.827-7.101c2.964-1.139,6.05-0.094,8.604,1.516
	c3.888,2.466,6.987,5.693,11.339,7.418c3.881,1.529,8.132,2.075,12.276,1.738c7.728-0.613,15.846-4.204,20.549-10.551
	C183.821,140.356,182.217,132.4,175.419,128.384z"/>
</svg>
