<?xml version="1.0" encoding="utf-8"?>
<!-- Generator: Adobe Illustrator 19.0.0, SVG Export Plug-In . SVG Version: 6.00 Build 0)  -->
<svg version="1.0" id="Layer_1" xmlns="http://www.w3.org/2000/svg" xmlns:xlink="http://www.w3.org/1999/xlink" x="0px" y="0px"
	 viewBox="0 0 188.314 167.333" style="enable-background:new 0 0 188.314 167.333;" xml:space="preserve">
<path id="XMLID_318_" d="M23.779,24.068l9.055,74.766c0.539,3.312,7.167,7.5,12.877,1.697c0,0,9.244-11.068,15.29-10.197
	c9.376,1.35,57.593,64.589,57.593,64.589c1.997,1.911,5.194,1.841,7.105-0.155l39.19-40.942c1.911-1.997,1.841-5.194-0.155-7.105
	c0,0-63.706-44.54-64.732-54.053c-0.663-6.142,10.5-16.333,10.5-16.333c7.833-7,0.833-11.773-2.5-12.167l-78.143-6.449
	C26.591,17.332,23.251,20.822,23.779,24.068z"/>
</svg>
