<?xml version="1.0" encoding="utf-8"?>
<!-- Generator: Adobe Illustrator 19.0.0, SVG Export Plug-In . SVG Version: 6.00 Build 0)  -->
<svg version="1.0" id="Layer_1" xmlns="http://www.w3.org/2000/svg" xmlns:xlink="http://www.w3.org/1999/xlink" x="0px" y="0px"
	 viewBox="-385 197.667 188.314 167.333" style="enable-background:new -385 197.667 188.314 167.333;" xml:space="preserve">
<path id="XMLID_530_" d="M-352.145,327.349c-0.37,3.824,3.948,7.656,7.472,9.006c2.219,0.85,4.311,0.072,6.359,0.213
	c4.694,0.324,2.168-0.32,4.987,2.603c2.715,2.815,5.81,6.289,10.428,4.539c6.559-2.485,3.348-6.609,10.149-2.351
	c14.641,9.168,14.882-16.509,24.852-10.311c6.938,4.314,12.276,9.509,20.419,2.876c8.857-7.215,8.016-18.562,7.677-28.902
	c-0.092-2.81-1.207-11.691,0.504-13.991c2.513-3.379,7.332-1.152,10.484-0.257c4.541,1.289,8.396,3.152,12.249,0.165
	c4.458-3.456,2.56-9.034,2.537-13.989c-0.071-15.253-14.931-21.164-10.621-27.083c1.872-2.571,6.504-0.357,8.5-2.493
	c2.216-2.372,0.057-7.624,0.435-10.412c0.692-5.11,13.844-11.723,8.313-18.163c-4.63-5.391-14.468,4.141-19.478,4.73
	c-3.836,0.451-11.922-2.64-15.152-0.448c-2.489,1.689-1.544,5.686-4.297,7.59c-4.4,3.043-12.327-0.357-17.263-0.865
	c-5.694-0.586-14.565-2.035-19.463,1.683c-4.843,3.676-2.394,9.749-3.314,14.834c-1.348,7.449-10.305,4.247-16.737,5.561
	c-5.876,1.201-12.855,5.35-15.685,10.769c-1.702,3.261-2.123,6.775-1.886,10.403c0.097,1.492,1.925,6.245,1.323,7.499
	c-1.357,2.826-9.339,3.902-12.062,6.679c-4.871,4.967-2.511,7.769-0.701,13.221c2.305,6.943-2.799,4.376-5.205,10.105
	c-1.906,4.537,0.867,6.115,3.272,8.884C-351.264,322.65-351.697,322.724-352.145,327.349z"/>
</svg>
